<svg width="71.3334" height="71.298" viewBox="0 0 71.3334 71.298" fill="none" xmlns="http://www.w3.org/2000/svg">
<g id="Group">
<path id="Vector" d="M12.8196 26.1787C14.8374 25.3307 17.0745 26.7124 18.8438 27.7212C22.5796 30.1189 26.4982 32.312 30.9579 32.5167C39.051 32.9115 48.3504 29.7315 55.4346 26.2664C56.6848 25.6304 57.9496 24.8848 58.995 23.9856C63.3084 20.1843 60.1647 17.7573 55.4492 17.5818C50.8726 17.3991 46.2887 17.4429 41.7121 17.5818C33.7506 18.1009 25.7672 19 17.8714 20.2428C14.4792 20.8203 11.0358 21.215 7.68739 21.9972C2.07265 23.1815 0.252247 25.3088 0.0840977 31.2374C0.120652 34.3881 -0.778584 40.039 2.55517 41.5887C5.31136 42.8023 11.3063 41.0697 13.9601 39.6296C20.1378 36.0329 14.6693 33.5986 12.4102 29.9216C11.6718 28.7738 11.3501 26.9097 12.7904 26.186L12.8123 26.1714L12.8196 26.1787Z" fill="currentColor"/>
<path id="Vector_2" d="M4.36792 12.5895C5.87396 13.5764 8.45469 13.4448 10.4798 13.4667C12.2563 13.4448 14.0767 13.4156 15.8825 13.379C23.1934 13.379 30.4969 12.8234 37.7785 12.319C43.6272 11.9901 49.4759 11.8 55.3173 12.107C60.179 12.2752 66.5614 13.9419 66.9781 19.6512C67.6434 33.8185 32.2296 34.0525 37.0182 46.1656C38.0271 48.5268 40.1107 50.4713 41.9384 52.2843C46.1056 56.2903 50.324 60.2159 54.652 64.0245C57.4594 66.5466 61.2318 68.8055 64.6021 65.8887C72.9145 57.5915 71.1965 42.218 71.1672 30.3315C71.0137 23.1529 71.5474 14.8776 66.7734 8.99286C57.8322 -2.0164 35.366 -0.057247 20.9124 0.483713C18.8361 0.703021 16.5405 1.20743 14.4496 2.00425C11.0062 3.31279 7.68705 5.41814 5.37682 7.96943C4.06817 9.43148 2.81071 11.5076 4.33868 12.5749L4.36061 12.5895H4.36792Z" fill="currentColor"/>
<path id="Vector_3" d="M14.5082 50.1198C13.0899 47.3273 9.8731 47.9998 7.34355 49.0013C4.58735 50.1271 1.66301 52.1594 1.67032 55.4051C1.39982 58.7167 6.60515 69.1557 10.8235 65.4056C12.0883 64.2506 12.8706 62.5911 13.5651 60.8951C14.8006 57.6055 16.0288 53.4167 14.5301 50.149L14.5082 50.1125V50.1198Z" fill="currentColor"/>
<path id="Vector_4" d="M50.7627 69.6239C50.7407 67.5698 47.6263 64.9088 45.7328 62.8619C44.139 61.261 42.5818 59.6674 40.9442 57.9568C36.7843 53.768 29.9779 45.7413 24.0049 51.3556C21.1171 54.17 19.5672 58.4685 18.1124 62.4526C17.491 64.5068 15.7875 68.3446 17.6299 69.9675C18.3244 70.5743 19.5014 70.8886 21.0879 71.0348C25.065 71.3053 29.6489 71.2687 33.9331 71.298C37.9979 71.298 41.668 71.2761 45.3015 71.2249C46.8733 71.181 50.5872 71.2614 50.7554 69.6532V69.6312L50.7627 69.6239Z" fill="currentColor"/>
</g>
</svg>
